<?xml version="1.0" encoding="UTF-8" standalone="no" ?>
<!DOCTYPE svg PUBLIC "-//W3C//DTD SVG 1.1//EN" "http://www.w3.org/Graphics/SVG/1.1/DTD/svg11.dtd">
<svg xmlns="http://www.w3.org/2000/svg" xmlns:xlink="http://www.w3.org/1999/xlink" version="1.1" width="640" height="400" viewBox="0 0 640 400" xml:space="preserve">
<desc>Created with Fabric.js 4.6.0</desc>
<defs>
</defs>
<g transform="matrix(1 0 0 1 320.08 200)" id="ZpvbJas5ZC5AAEzfv7-Zr"  >
<path style="stroke: rgb(0,0,0); stroke-width: 10; stroke-dasharray: none; stroke-linecap: butt; stroke-dashoffset: 0; stroke-linejoin: miter; stroke-miterlimit: 4; fill: none; fill-rule: nonzero; opacity: 1;" vector-effect="non-scaling-stroke"  transform=" translate(0, 0)" d="M -319.61538 0 L 319.61539 0" stroke-linecap="round" />
</g>
<g transform="matrix(1 0 0 1 217.81 195)" id="RtrWzZztWs_hXfWIeFpEg"  >
<path style="stroke: rgb(0,0,0); stroke-width: 1; stroke-dasharray: none; stroke-linecap: butt; stroke-dashoffset: 0; stroke-linejoin: miter; stroke-miterlimit: 4; fill: rgb(255,255,255); fill-opacity: 0; fill-rule: nonzero; opacity: 1;" vector-effect="non-scaling-stroke"  transform=" translate(0, 0)" d="M 0 0" stroke-linecap="round" />
</g>
<g transform="matrix(0.06 0 0 0.06 620.08 20.78)" id="DFUhICkvTdnUwGb_2HX_c"  >
<path style="stroke: none; stroke-width: 1; stroke-dasharray: none; stroke-linecap: butt; stroke-dashoffset: 0; stroke-linejoin: miter; stroke-miterlimit: 4; fill: rgb(0,0,0); fill-rule: nonzero; opacity: 1;" vector-effect="non-scaling-stroke"  transform=" translate(-255.95, -255.95)" d="M 495.9 166.6 C 499.09999999999997 175.29999999999998 496.4 185 489.5 191.2 L 446.2 230.6 C 447.3 238.9 447.9 247.4 447.9 256 C 447.9 264.6 447.29999999999995 273.1 446.2 281.4 L 489.5 320.79999999999995 C 496.4 326.99999999999994 499.1 336.69999999999993 495.9 345.4 C 491.5 357.29999999999995 486.2 368.7 480.09999999999997 379.7 L 475.4 387.8 C 468.79999999999995 398.8 461.4 409.2 453.29999999999995 419 C 447.4 426.2 437.59999999999997 428.6 428.79999999999995 425.8 L 373.09999999999997 408.1 C 359.7 418.40000000000003 344.9 427 329.09999999999997 433.5 L 316.59999999999997 490.6 C 314.59999999999997 499.70000000000005 307.59999999999997 506.90000000000003 298.4 508.40000000000003 C 284.59999999999997 510.70000000000005 270.4 511.90000000000003 255.89999999999998 511.90000000000003 C 241.39999999999998 511.90000000000003 227.2 510.70000000000005 213.39999999999998 508.40000000000003 C 204.2 506.90000000000003 197.2 499.70000000000005 195.2 490.6 L 182.7 433.5 C 166.89999999999998 427 152.1 418.4 138.7 408.1 L 83.1 425.9 C 74.3 428.7 64.5 426.2 58.599999999999994 419.09999999999997 C 50.49999999999999 409.29999999999995 43.099999999999994 398.9 36.49999999999999 387.9 L 31.799999999999994 379.79999999999995 C 25.699999999999996 368.79999999999995 20.39999999999999 357.4 15.999999999999993 345.49999999999994 C 12.799999999999994 336.79999999999995 15.499999999999993 327.09999999999997 22.39999999999999 320.8999999999999 L 65.69999999999999 281.49999999999994 C 64.6 273.1 64 264.6 64 256 C 64 247.39999999999998 64.6 238.9 65.7 230.6 L 22.4 191.2 C 15.499999999999998 185 12.799999999999999 175.29999999999998 15.999999999999998 166.6 C 20.4 154.7 25.699999999999996 143.29999999999998 31.799999999999997 132.3 L 36.5 124.20000000000002 C 43.1 113.20000000000002 50.5 102.80000000000001 58.6 93.00000000000001 C 64.5 85.80000000000001 74.3 83.40000000000002 83.1 86.20000000000002 L 138.8 103.90000000000002 C 152.20000000000002 93.60000000000002 167 85.00000000000003 182.8 78.50000000000003 L 195.3 21.400000000000027 C 197.3 12.300000000000027 204.3 5.100000000000026 213.5 3.6000000000000263 C 227.3 1.2 241.5 0 256 0 C 270.5 0 284.7 1.2 298.5 3.5 C 307.7 5 314.7 12.2 316.7 21.3 L 329.2 78.4 C 345 84.9 359.8 93.5 373.2 103.80000000000001 L 428.9 86.10000000000001 C 437.7 83.30000000000001 447.5 85.80000000000001 453.4 92.9 C 461.5 102.7 468.9 113.10000000000001 475.5 124.10000000000001 L 480.2 132.20000000000002 C 486.3 143.20000000000002 491.59999999999997 154.60000000000002 496 166.5 z M 256 336 C 300.2 336 336 300.2 336 256 C 336 211.8 300.2 176 256 176 C 211.8 176 176 211.8 176 256 C 176 300.2 211.8 336 256 336 z" stroke-linecap="round" />
</g>
<g transform="matrix(1.4 0 0 0.4 320 200)" id="ppz5VDXiAxlWEZM9laLB2"  >
<path style="stroke: rgb(0,0,0); stroke-width: 1; stroke-dasharray: none; stroke-linecap: butt; stroke-dashoffset: 0; stroke-linejoin: miter; stroke-miterlimit: 4; fill: rgb(255,255,255); fill-rule: nonzero; opacity: 1;" vector-effect="non-scaling-stroke"  transform=" translate(0, 0)" d="M -55.06073 2.6824 C -55.06073 -29.20825 -47.60687 -55.06073 -38.41208 -55.06073 L 38.41208 -55.06073 L 38.41208 -55.06073 C 47.606880000000004 -55.06073 55.06073000000001 -29.20825 55.06073000000001 2.6824000000000012 L 55.06073000000001 2.6824000000000012 L 55.06073000000001 2.6824000000000012 C 55.06073000000001 31.61016 48.299400000000006 55.06073 39.958870000000005 55.06073 L -39.95886999999999 55.06073 L -39.95886999999999 55.06073 C -48.29939999999999 55.06073 -55.06072999999999 31.61015 -55.06072999999999 2.6824000000000012 z" stroke-linecap="round" />
</g>
<g transform="matrix(1.64 0 0 1.13 320 200)" id="9a8iOWldCwl9KqBoVum7F"  >
<g style="opacity: 0.2;" vector-effect="non-scaling-stroke"   >
		<g transform="matrix(1 0 0 1 0 0)" id="GEGj2qAfRYUN4PK1vdkeR"  >
<path style="stroke: none; stroke-width: 1; stroke-dasharray: none; stroke-linecap: butt; stroke-dashoffset: 0; stroke-linejoin: miter; stroke-miterlimit: 4; fill: rgb(179,181,179); fill-rule: nonzero; opacity: 1;" vector-effect="non-scaling-stroke"  transform=" translate(-40, -40)" d="M 80 33.5 C 80 37.4 76.8 40.6 72.9 40.6 C 70.7 40.6 68.80000000000001 39.6 67.5 38.1 L 58.3 43.7 C 58.599999999999994 44.5 58.8 45.400000000000006 58.8 46.400000000000006 C 58.8 50.300000000000004 55.599999999999994 53.50000000000001 51.699999999999996 53.50000000000001 C 47.8 53.50000000000001 44.599999999999994 50.300000000000004 44.599999999999994 46.400000000000006 C 44.599999999999994 45.60000000000001 44.8 44.800000000000004 44.99999999999999 44.00000000000001 L 33.9 38 C 32.6 39.7 30.599999999999998 40.7 28.299999999999997 40.7 C 26.099999999999998 40.7 24.199999999999996 39.7 22.9 38.2 L 13.7 43.800000000000004 C 14 44.6 14.2 45.50000000000001 14.2 46.50000000000001 C 14.2 50.400000000000006 11 53.60000000000001 7.1 53.60000000000001 C 3.1999999999999997 53.60000000000001 0 50.400000000000006 0 46.50000000000001 C 0 42.60000000000001 3.2 39.400000000000006 7.1 39.400000000000006 C 9.3 39.400000000000006 11.2 40.400000000000006 12.5 41.900000000000006 L 21.7 36.300000000000004 C 21.4 35.50000000000001 21.2 34.6 21.2 33.6 C 21.2 29.700000000000003 24.4 26.5 28.299999999999997 26.5 C 32.199999999999996 26.5 35.4 29.7 35.4 33.6 C 35.4 34.4 35.199999999999996 35.2 35 36 L 46.1 42 C 47.4 40.3 49.4 39.3 51.7 39.3 C 53.900000000000006 39.3 55.800000000000004 40.3 57.1 41.8 L 66.3 36.199999999999996 C 66 35.4 65.8 34.49999999999999 65.8 33.49999999999999 C 65.8 29.599999999999994 69 26.39999999999999 72.89999999999999 26.39999999999999 C 76.8 26.4 80 29.6 80 33.5 z" stroke-linecap="round" />
</g>
		<g transform="matrix(1 0 0 1 32.9 -6.5)" id="c4FT-U-PJnn0N2LAgl9XF"  >
<path style="stroke: none; stroke-width: 1; stroke-dasharray: none; stroke-linecap: butt; stroke-dashoffset: 0; stroke-linejoin: miter; stroke-miterlimit: 4; fill: rgb(255,255,255); fill-rule: nonzero; opacity: 1;" vector-effect="non-scaling-stroke"  transform=" translate(-72.9, -33.5)" d="M 72.9 30.2 C 71.10000000000001 30.2 69.60000000000001 31.7 69.60000000000001 33.5 C 69.60000000000001 35.3 71.10000000000001 36.8 72.9 36.8 C 74.7 36.8 76.2 35.3 76.2 33.5 C 76.2 31.7 74.7 30.2 72.9 30.2 z" stroke-linecap="round" />
</g>
		<g transform="matrix(1 0 0 1 11.7 6.4)" id="hKZJnrJL3XuEA6gDyCfxj"  >
<path style="stroke: none; stroke-width: 1; stroke-dasharray: none; stroke-linecap: butt; stroke-dashoffset: 0; stroke-linejoin: miter; stroke-miterlimit: 4; fill: rgb(255,255,255); fill-rule: nonzero; opacity: 1;" vector-effect="non-scaling-stroke"  transform=" translate(-51.7, -46.4)" d="M 51.7 43.1 C 49.900000000000006 43.1 48.400000000000006 44.6 48.400000000000006 46.4 C 48.400000000000006 48.199999999999996 49.900000000000006 49.699999999999996 51.7 49.699999999999996 C 53.5 49.699999999999996 55 48.199999999999996 55 46.4 C 55 44.6 53.5 43.1 51.7 43.1 z" stroke-linecap="round" />
</g>
		<g transform="matrix(1 0 0 1 -11.7 -6.5)" id="QdRkP8hLW_ZTWJeAYhoDK"  >
<path style="stroke: none; stroke-width: 1; stroke-dasharray: none; stroke-linecap: butt; stroke-dashoffset: 0; stroke-linejoin: miter; stroke-miterlimit: 4; fill: rgb(255,255,255); fill-rule: nonzero; opacity: 1;" vector-effect="non-scaling-stroke"  transform=" translate(-28.3, -33.5)" d="M 28.3 30.2 C 26.5 30.2 25 31.7 25 33.5 C 25 35.3 26.5 36.8 28.3 36.8 C 30.1 36.8 31.6 35.3 31.6 33.5 C 31.6 31.7 30.1 30.2 28.3 30.2 z" stroke-linecap="round" />
</g>
		<g transform="matrix(1 0 0 1 -32.8 6.5)" id="26WNHNQnKqdb0pwn3si82"  >
<path style="stroke: none; stroke-width: 1; stroke-dasharray: none; stroke-linecap: butt; stroke-dashoffset: 0; stroke-linejoin: miter; stroke-miterlimit: 4; fill: rgb(255,255,255); fill-rule: nonzero; opacity: 1;" vector-effect="non-scaling-stroke"  transform=" translate(-7.2, -46.5)" d="M 10.5 46.5 C 10.5 48.3 9 49.8 7.2 49.8 C 5.4 49.8 3.9000000000000004 48.3 3.9000000000000004 46.5 C 3.9000000000000004 44.7 5.4 43.2 7.2 43.2 C 9 43.2 10.5 44.6 10.5 46.5 z" stroke-linecap="round" />
</g>
</g>
</g>
<g transform="matrix(0.25 0 0 0.25 320 200)" id="02r8Pp-LWvH_K9GsUPgqh"  >
<path style="stroke: rgb(0,0,0); stroke-width: 0; stroke-dasharray: none; stroke-linecap: butt; stroke-dashoffset: 0; stroke-linejoin: miter; stroke-miterlimit: 4; fill: rgb(0,0,0); fill-rule: nonzero; opacity: 1;" vector-effect="non-scaling-stroke"  transform=" translate(0, 0)" d="M 0 -32.38866 C 17.87854 -32.38866 32.38866 -17.87854 32.38866 0 C 32.38866 17.87854 17.87854 32.38866 0 32.38866 C -17.87854 32.38866 -32.38866 17.87854 -32.38866 0 C -32.38866 -17.87854 -17.87854 -32.38866 0 -32.38866 z" stroke-linecap="round" />
</g>
</svg>