<?xml version="1.0" encoding="UTF-8" standalone="no" ?>
<!DOCTYPE svg PUBLIC "-//W3C//DTD SVG 1.1//EN" "http://www.w3.org/Graphics/SVG/1.1/DTD/svg11.dtd">
<svg xmlns="http://www.w3.org/2000/svg" xmlns:xlink="http://www.w3.org/1999/xlink" version="1.1" width="640" height="400" viewBox="0 0 640 400" xml:space="preserve">
<desc>Created with Fabric.js 4.6.0</desc>
<defs>
</defs>
<g transform="matrix(1 0 0 1 320.08 200)" id="ZpvbJas5ZC5AAEzfv7-Zr"  >
<path style="stroke: rgb(0,0,0); stroke-width: 10; stroke-dasharray: none; stroke-linecap: butt; stroke-dashoffset: 0; stroke-linejoin: miter; stroke-miterlimit: 4; fill: none; fill-rule: nonzero; opacity: 1;" vector-effect="non-scaling-stroke"  transform=" translate(0, 0)" d="M -319.61538 0 L 319.61539 0" stroke-linecap="round" />
</g>
<g transform="matrix(1 0 0 1 217.81 195)" id="RtrWzZztWs_hXfWIeFpEg"  >
<path style="stroke: rgb(0,0,0); stroke-width: 1; stroke-dasharray: none; stroke-linecap: butt; stroke-dashoffset: 0; stroke-linejoin: miter; stroke-miterlimit: 4; fill: rgb(255,255,255); fill-opacity: 0; fill-rule: nonzero; opacity: 1;" vector-effect="non-scaling-stroke"  transform=" translate(0, 0)" d="M 0 0" stroke-linecap="round" />
</g>
<g transform="matrix(0.06 0 0 0.06 620.08 20.78)" id="DFUhICkvTdnUwGb_2HX_c"  >
<path style="stroke: none; stroke-width: 1; stroke-dasharray: none; stroke-linecap: butt; stroke-dashoffset: 0; stroke-linejoin: miter; stroke-miterlimit: 4; fill: rgb(0,0,0); fill-rule: nonzero; opacity: 1;" vector-effect="non-scaling-stroke"  transform=" translate(-255.95, -255.95)" d="M 495.9 166.6 C 499.09999999999997 175.29999999999998 496.4 185 489.5 191.2 L 446.2 230.6 C 447.3 238.9 447.9 247.4 447.9 256 C 447.9 264.6 447.29999999999995 273.1 446.2 281.4 L 489.5 320.79999999999995 C 496.4 326.99999999999994 499.1 336.69999999999993 495.9 345.4 C 491.5 357.29999999999995 486.2 368.7 480.09999999999997 379.7 L 475.4 387.8 C 468.79999999999995 398.8 461.4 409.2 453.29999999999995 419 C 447.4 426.2 437.59999999999997 428.6 428.79999999999995 425.8 L 373.09999999999997 408.1 C 359.7 418.40000000000003 344.9 427 329.09999999999997 433.5 L 316.59999999999997 490.6 C 314.59999999999997 499.70000000000005 307.59999999999997 506.90000000000003 298.4 508.40000000000003 C 284.59999999999997 510.70000000000005 270.4 511.90000000000003 255.89999999999998 511.90000000000003 C 241.39999999999998 511.90000000000003 227.2 510.70000000000005 213.39999999999998 508.40000000000003 C 204.2 506.90000000000003 197.2 499.70000000000005 195.2 490.6 L 182.7 433.5 C 166.89999999999998 427 152.1 418.4 138.7 408.1 L 83.1 425.9 C 74.3 428.7 64.5 426.2 58.599999999999994 419.09999999999997 C 50.49999999999999 409.29999999999995 43.099999999999994 398.9 36.49999999999999 387.9 L 31.799999999999994 379.79999999999995 C 25.699999999999996 368.79999999999995 20.39999999999999 357.4 15.999999999999993 345.49999999999994 C 12.799999999999994 336.79999999999995 15.499999999999993 327.09999999999997 22.39999999999999 320.8999999999999 L 65.69999999999999 281.49999999999994 C 64.6 273.1 64 264.6 64 256 C 64 247.39999999999998 64.6 238.9 65.7 230.6 L 22.4 191.2 C 15.499999999999998 185 12.799999999999999 175.29999999999998 15.999999999999998 166.6 C 20.4 154.7 25.699999999999996 143.29999999999998 31.799999999999997 132.3 L 36.5 124.20000000000002 C 43.1 113.20000000000002 50.5 102.80000000000001 58.6 93.00000000000001 C 64.5 85.80000000000001 74.3 83.40000000000002 83.1 86.20000000000002 L 138.8 103.90000000000002 C 152.20000000000002 93.60000000000002 167 85.00000000000003 182.8 78.50000000000003 L 195.3 21.400000000000027 C 197.3 12.300000000000027 204.3 5.100000000000026 213.5 3.6000000000000263 C 227.3 1.2 241.5 0 256 0 C 270.5 0 284.7 1.2 298.5 3.5 C 307.7 5 314.7 12.2 316.7 21.3 L 329.2 78.4 C 345 84.9 359.8 93.5 373.2 103.80000000000001 L 428.9 86.10000000000001 C 437.7 83.30000000000001 447.5 85.80000000000001 453.4 92.9 C 461.5 102.7 468.9 113.10000000000001 475.5 124.10000000000001 L 480.2 132.20000000000002 C 486.3 143.20000000000002 491.59999999999997 154.60000000000002 496 166.5 z M 256 336 C 300.2 336 336 300.2 336 256 C 336 211.8 300.2 176 256 176 C 211.8 176 176 211.8 176 256 C 176 300.2 211.8 336 256 336 z" stroke-linecap="round" />
</g>
<g transform="matrix(1.53 0 0 0.43 320 200)" id="kAjJvxRlD99C-EUl80Xf7"  >
<path style="stroke: rgb(0,0,0); stroke-width: 3; stroke-dasharray: none; stroke-linecap: butt; stroke-dashoffset: 0; stroke-linejoin: miter; stroke-miterlimit: 4; fill: rgb(255,255,255); fill-rule: nonzero; opacity: 1;" vector-effect="non-scaling-stroke"  transform=" translate(0, 0)" d="M -81.61943 -81.58357 C -81.61943 -81.60338 -81.61493 -81.61944 -81.60938999999999 -81.61944 L 81.60939000000002 -81.61944 L 81.60939000000002 -81.61944 C 81.61494000000002 -81.61944 81.61943000000002 -81.60338 81.61943000000002 -81.58357 L 81.61943000000002 81.58902000000002 L 81.61943000000002 81.58902000000002 C 81.61943000000002 81.60581000000002 81.61562000000002 81.61942000000002 81.61092000000002 81.61942000000002 L -81.61090999999999 81.61942000000002 L -81.61090999999999 81.61942000000002 C -81.61560999999999 81.61942000000002 -81.61941999999999 81.60581000000002 -81.61941999999999 81.58902000000002 z" stroke-linecap="round" />
</g>
<g transform="matrix(0.54 0 0 0.54 256.72 176.25)" id="U5edgaaJU4T_IfUz9M1_K"  >
<path style="stroke: none; stroke-width: 1; stroke-dasharray: none; stroke-linecap: butt; stroke-dashoffset: 0; stroke-linejoin: miter; stroke-miterlimit: 4; fill: rgb(0,0,0); fill-rule: nonzero; opacity: 1;" vector-effect="non-scaling-stroke"  transform=" translate(-40, -40)" d="M 65.7 25.7 L 54.2 25.7 C 47.5 25.7 41.900000000000006 30.299999999999997 40.300000000000004 36.5 L 39.6 36.5 C 38 30.3 32.4 25.7 25.700000000000003 25.7 L 14.3 25.7 C 6.4 25.7 0 32.1 0 40 C 0 47.9 6.4 54.3 14.3 54.3 L 25.8 54.3 C 32.2 54.3 37.5 50.099999999999994 39.4 44.4 L 40.6 44.4 C 42.5 50.1 47.800000000000004 54.3 54.2 54.3 L 65.7 54.3 C 73.6 54.3 80 47.9 80 40 C 80 32.1 73.6 25.7 65.7 25.7 z M 25.8 46.9 L 14.3 46.9 C 10.5 46.9 7.4 43.8 7.4 40 C 7.4 36.2 10.5 33.1 14.3 33.1 L 25.8 33.1 C 28.3 33.1 30.6 34.5 31.8 36.6 L 26.8 36.6 C 24.6 36.6 22.900000000000002 38.4 22.900000000000002 40.5 C 22.900000000000002 42.6 24.700000000000003 44.4 26.8 44.4 L 31.8 44.4 C 30.5 45.9 28 46.9 25.8 46.9 z M 65.7 46.9 L 54.2 46.9 C 52.1 46.9 49.5 45.9 48.2 44.4 L 52.5 44.4 C 54.7 44.4 56.4 42.6 56.4 40.5 C 56.4 38.4 54.6 36.6 52.5 36.6 L 48.2 36.6 C 49.400000000000006 34.5 51.6 33.1 54.2 33.1 L 65.7 33.1 C 69.5 33.1 72.60000000000001 36.2 72.60000000000001 40 C 72.6 43.8 69.5 46.9 65.7 46.9 z" stroke-linecap="round" />
</g>
<g transform="matrix(0.54 0 0 0.54 301.03 176.25)" id="ScrIeMM5dvdYA4NiVQ_Zt"  >
<path style="stroke: none; stroke-width: 1; stroke-dasharray: none; stroke-linecap: butt; stroke-dashoffset: 0; stroke-linejoin: miter; stroke-miterlimit: 4; fill: rgb(0,0,0); fill-rule: nonzero; opacity: 1;" vector-effect="non-scaling-stroke"  transform=" translate(-40, -40)" d="M 65.7 25.7 L 54.2 25.7 C 47.5 25.7 41.900000000000006 30.299999999999997 40.300000000000004 36.5 L 39.6 36.5 C 38 30.3 32.4 25.7 25.700000000000003 25.7 L 14.3 25.7 C 6.4 25.7 0 32.1 0 40 C 0 47.9 6.4 54.3 14.3 54.3 L 25.8 54.3 C 32.2 54.3 37.5 50.099999999999994 39.4 44.4 L 40.6 44.4 C 42.5 50.1 47.800000000000004 54.3 54.2 54.3 L 65.7 54.3 C 73.6 54.3 80 47.9 80 40 C 80 32.1 73.6 25.7 65.7 25.7 z M 25.8 46.9 L 14.3 46.9 C 10.5 46.9 7.4 43.8 7.4 40 C 7.4 36.2 10.5 33.1 14.3 33.1 L 25.8 33.1 C 28.3 33.1 30.6 34.5 31.8 36.6 L 26.8 36.6 C 24.6 36.6 22.900000000000002 38.4 22.900000000000002 40.5 C 22.900000000000002 42.6 24.700000000000003 44.4 26.8 44.4 L 31.8 44.4 C 30.5 45.9 28 46.9 25.8 46.9 z M 65.7 46.9 L 54.2 46.9 C 52.1 46.9 49.5 45.9 48.2 44.4 L 52.5 44.4 C 54.7 44.4 56.4 42.6 56.4 40.5 C 56.4 38.4 54.6 36.6 52.5 36.6 L 48.2 36.6 C 49.400000000000006 34.5 51.6 33.1 54.2 33.1 L 65.7 33.1 C 69.5 33.1 72.60000000000001 36.2 72.60000000000001 40 C 72.6 43.8 69.5 46.9 65.7 46.9 z" stroke-linecap="round" />
</g>
<g transform="matrix(0.54 0 0 0.54 279.17 176.25)" id="EBs822qDrk78qIpvhlq4t"  >
<path style="stroke: none; stroke-width: 1; stroke-dasharray: none; stroke-linecap: butt; stroke-dashoffset: 0; stroke-linejoin: miter; stroke-miterlimit: 4; fill: rgb(0,0,0); fill-rule: nonzero; opacity: 1;" vector-effect="non-scaling-stroke"  transform=" translate(-40, -40)" d="M 65.7 25.7 L 54.2 25.7 C 47.5 25.7 41.900000000000006 30.299999999999997 40.300000000000004 36.5 L 39.6 36.5 C 38 30.3 32.4 25.7 25.700000000000003 25.7 L 14.3 25.7 C 6.4 25.7 0 32.1 0 40 C 0 47.9 6.4 54.3 14.3 54.3 L 25.8 54.3 C 32.2 54.3 37.5 50.099999999999994 39.4 44.4 L 40.6 44.4 C 42.5 50.1 47.800000000000004 54.3 54.2 54.3 L 65.7 54.3 C 73.6 54.3 80 47.9 80 40 C 80 32.1 73.6 25.7 65.7 25.7 z M 25.8 46.9 L 14.3 46.9 C 10.5 46.9 7.4 43.8 7.4 40 C 7.4 36.2 10.5 33.1 14.3 33.1 L 25.8 33.1 C 28.3 33.1 30.6 34.5 31.8 36.6 L 26.8 36.6 C 24.6 36.6 22.900000000000002 38.4 22.900000000000002 40.5 C 22.900000000000002 42.6 24.700000000000003 44.4 26.8 44.4 L 31.8 44.4 C 30.5 45.9 28 46.9 25.8 46.9 z M 65.7 46.9 L 54.2 46.9 C 52.1 46.9 49.5 45.9 48.2 44.4 L 52.5 44.4 C 54.7 44.4 56.4 42.6 56.4 40.5 C 56.4 38.4 54.6 36.6 52.5 36.6 L 48.2 36.6 C 49.400000000000006 34.5 51.6 33.1 54.2 33.1 L 65.7 33.1 C 69.5 33.1 72.60000000000001 36.2 72.60000000000001 40 C 72.6 43.8 69.5 46.9 65.7 46.9 z" stroke-linecap="round" />
</g>
<g transform="matrix(0.54 0 0 0.54 388.91 176.25)" id="qgAPaklcKsugPyyDAI_lB"  >
<path style="stroke: none; stroke-width: 1; stroke-dasharray: none; stroke-linecap: butt; stroke-dashoffset: 0; stroke-linejoin: miter; stroke-miterlimit: 4; fill: rgb(0,0,0); fill-rule: nonzero; opacity: 1;" vector-effect="non-scaling-stroke"  transform=" translate(-40, -40)" d="M 65.7 25.7 L 54.2 25.7 C 47.5 25.7 41.900000000000006 30.299999999999997 40.300000000000004 36.5 L 39.6 36.5 C 38 30.3 32.4 25.7 25.700000000000003 25.7 L 14.3 25.7 C 6.4 25.7 0 32.1 0 40 C 0 47.9 6.4 54.3 14.3 54.3 L 25.8 54.3 C 32.2 54.3 37.5 50.099999999999994 39.4 44.4 L 40.6 44.4 C 42.5 50.1 47.800000000000004 54.3 54.2 54.3 L 65.7 54.3 C 73.6 54.3 80 47.9 80 40 C 80 32.1 73.6 25.7 65.7 25.7 z M 25.8 46.9 L 14.3 46.9 C 10.5 46.9 7.4 43.8 7.4 40 C 7.4 36.2 10.5 33.1 14.3 33.1 L 25.8 33.1 C 28.3 33.1 30.6 34.5 31.8 36.6 L 26.8 36.6 C 24.6 36.6 22.900000000000002 38.4 22.900000000000002 40.5 C 22.900000000000002 42.6 24.700000000000003 44.4 26.8 44.4 L 31.8 44.4 C 30.5 45.9 28 46.9 25.8 46.9 z M 65.7 46.9 L 54.2 46.9 C 52.1 46.9 49.5 45.9 48.2 44.4 L 52.5 44.4 C 54.7 44.4 56.4 42.6 56.4 40.5 C 56.4 38.4 54.6 36.6 52.5 36.6 L 48.2 36.6 C 49.400000000000006 34.5 51.6 33.1 54.2 33.1 L 65.7 33.1 C 69.5 33.1 72.60000000000001 36.2 72.60000000000001 40 C 72.6 43.8 69.5 46.9 65.7 46.9 z" stroke-linecap="round" />
</g>
<g transform="matrix(0 -0.43 0.43 0 234.63 205)" id="zY4T7hQn2PX96QQkxDPYa"  >
<path style="stroke: none; stroke-width: 1; stroke-dasharray: none; stroke-linecap: butt; stroke-dashoffset: 0; stroke-linejoin: miter; stroke-miterlimit: 4; fill: rgb(0,0,0); fill-rule: nonzero; opacity: 1;" vector-effect="non-scaling-stroke"  transform=" translate(-40, -40)" d="M 41.17 72.5 L 80 40 L 41.17 7.5 L 41.17 28.105 L 0 28.105 L 0 51.952 L 41.17 51.952 L 41.17 72.5 z" stroke-linecap="round" />
</g>
<g transform="matrix(0.54 0 0 0.54 234.86 176.25)" id="zdGBYMMg000iRB73UN19L"  >
<path style="stroke: none; stroke-width: 1; stroke-dasharray: none; stroke-linecap: butt; stroke-dashoffset: 0; stroke-linejoin: miter; stroke-miterlimit: 4; fill: rgb(0,0,0); fill-rule: nonzero; opacity: 1;" vector-effect="non-scaling-stroke"  transform=" translate(-40, -40)" d="M 65.7 25.7 L 54.2 25.7 C 47.5 25.7 41.900000000000006 30.299999999999997 40.300000000000004 36.5 L 39.6 36.5 C 38 30.3 32.4 25.7 25.700000000000003 25.7 L 14.3 25.7 C 6.4 25.7 0 32.1 0 40 C 0 47.9 6.4 54.3 14.3 54.3 L 25.8 54.3 C 32.2 54.3 37.5 50.099999999999994 39.4 44.4 L 40.6 44.4 C 42.5 50.1 47.800000000000004 54.3 54.2 54.3 L 65.7 54.3 C 73.6 54.3 80 47.9 80 40 C 80 32.1 73.6 25.7 65.7 25.7 z M 25.8 46.9 L 14.3 46.9 C 10.5 46.9 7.4 43.8 7.4 40 C 7.4 36.2 10.5 33.1 14.3 33.1 L 25.8 33.1 C 28.3 33.1 30.6 34.5 31.8 36.6 L 26.8 36.6 C 24.6 36.6 22.900000000000002 38.4 22.900000000000002 40.5 C 22.900000000000002 42.6 24.700000000000003 44.4 26.8 44.4 L 31.8 44.4 C 30.5 45.9 28 46.9 25.8 46.9 z M 65.7 46.9 L 54.2 46.9 C 52.1 46.9 49.5 45.9 48.2 44.4 L 52.5 44.4 C 54.7 44.4 56.4 42.6 56.4 40.5 C 56.4 38.4 54.6 36.6 52.5 36.6 L 48.2 36.6 C 49.400000000000006 34.5 51.6 33.1 54.2 33.1 L 65.7 33.1 C 69.5 33.1 72.60000000000001 36.2 72.60000000000001 40 C 72.6 43.8 69.5 46.9 65.7 46.9 z" stroke-linecap="round" />
</g>
<g transform="matrix(0.54 0 0 0.54 366.81 176.25)" id="7VuycInKomJMcDlewJyEA"  >
<path style="stroke: none; stroke-width: 1; stroke-dasharray: none; stroke-linecap: butt; stroke-dashoffset: 0; stroke-linejoin: miter; stroke-miterlimit: 4; fill: rgb(0,0,0); fill-rule: nonzero; opacity: 1;" vector-effect="non-scaling-stroke"  transform=" translate(-40, -40)" d="M 65.7 25.7 L 54.2 25.7 C 47.5 25.7 41.900000000000006 30.299999999999997 40.300000000000004 36.5 L 39.6 36.5 C 38 30.3 32.4 25.7 25.700000000000003 25.7 L 14.3 25.7 C 6.4 25.7 0 32.1 0 40 C 0 47.9 6.4 54.3 14.3 54.3 L 25.8 54.3 C 32.2 54.3 37.5 50.099999999999994 39.4 44.4 L 40.6 44.4 C 42.5 50.1 47.800000000000004 54.3 54.2 54.3 L 65.7 54.3 C 73.6 54.3 80 47.9 80 40 C 80 32.1 73.6 25.7 65.7 25.7 z M 25.8 46.9 L 14.3 46.9 C 10.5 46.9 7.4 43.8 7.4 40 C 7.4 36.2 10.5 33.1 14.3 33.1 L 25.8 33.1 C 28.3 33.1 30.6 34.5 31.8 36.6 L 26.8 36.6 C 24.6 36.6 22.900000000000002 38.4 22.900000000000002 40.5 C 22.900000000000002 42.6 24.700000000000003 44.4 26.8 44.4 L 31.8 44.4 C 30.5 45.9 28 46.9 25.8 46.9 z M 65.7 46.9 L 54.2 46.9 C 52.1 46.9 49.5 45.9 48.2 44.4 L 52.5 44.4 C 54.7 44.4 56.4 42.6 56.4 40.5 C 56.4 38.4 54.6 36.6 52.5 36.6 L 48.2 36.6 C 49.400000000000006 34.5 51.6 33.1 54.2 33.1 L 65.7 33.1 C 69.5 33.1 72.60000000000001 36.2 72.60000000000001 40 C 72.6 43.8 69.5 46.9 65.7 46.9 z" stroke-linecap="round" />
</g>
<g transform="matrix(0.54 0 0 0.54 344.95 176.25)" id="XAArZU-BURwhmBmFWpDBK"  >
<path style="stroke: none; stroke-width: 1; stroke-dasharray: none; stroke-linecap: butt; stroke-dashoffset: 0; stroke-linejoin: miter; stroke-miterlimit: 4; fill: rgb(0,0,0); fill-rule: nonzero; opacity: 1;" vector-effect="non-scaling-stroke"  transform=" translate(-40, -40)" d="M 65.7 25.7 L 54.2 25.7 C 47.5 25.7 41.900000000000006 30.299999999999997 40.300000000000004 36.5 L 39.6 36.5 C 38 30.3 32.4 25.7 25.700000000000003 25.7 L 14.3 25.7 C 6.4 25.7 0 32.1 0 40 C 0 47.9 6.4 54.3 14.3 54.3 L 25.8 54.3 C 32.2 54.3 37.5 50.099999999999994 39.4 44.4 L 40.6 44.4 C 42.5 50.1 47.800000000000004 54.3 54.2 54.3 L 65.7 54.3 C 73.6 54.3 80 47.9 80 40 C 80 32.1 73.6 25.7 65.7 25.7 z M 25.8 46.9 L 14.3 46.9 C 10.5 46.9 7.4 43.8 7.4 40 C 7.4 36.2 10.5 33.1 14.3 33.1 L 25.8 33.1 C 28.3 33.1 30.6 34.5 31.8 36.6 L 26.8 36.6 C 24.6 36.6 22.900000000000002 38.4 22.900000000000002 40.5 C 22.900000000000002 42.6 24.700000000000003 44.4 26.8 44.4 L 31.8 44.4 C 30.5 45.9 28 46.9 25.8 46.9 z M 65.7 46.9 L 54.2 46.9 C 52.1 46.9 49.5 45.9 48.2 44.4 L 52.5 44.4 C 54.7 44.4 56.4 42.6 56.4 40.5 C 56.4 38.4 54.6 36.6 52.5 36.6 L 48.2 36.6 C 49.400000000000006 34.5 51.6 33.1 54.2 33.1 L 65.7 33.1 C 69.5 33.1 72.60000000000001 36.2 72.60000000000001 40 C 72.6 43.8 69.5 46.9 65.7 46.9 z" stroke-linecap="round" />
</g>
<g transform="matrix(0.54 0 0 0.54 323.13 176.25)" id="qILuN9qUJBgb10QVibiIp"  >
<path style="stroke: none; stroke-width: 1; stroke-dasharray: none; stroke-linecap: butt; stroke-dashoffset: 0; stroke-linejoin: miter; stroke-miterlimit: 4; fill: rgb(0,0,0); fill-rule: nonzero; opacity: 1;" vector-effect="non-scaling-stroke"  transform=" translate(-40, -40)" d="M 65.7 25.7 L 54.2 25.7 C 47.5 25.7 41.900000000000006 30.299999999999997 40.300000000000004 36.5 L 39.6 36.5 C 38 30.3 32.4 25.7 25.700000000000003 25.7 L 14.3 25.7 C 6.4 25.7 0 32.1 0 40 C 0 47.9 6.4 54.3 14.3 54.3 L 25.8 54.3 C 32.2 54.3 37.5 50.099999999999994 39.4 44.4 L 40.6 44.4 C 42.5 50.1 47.800000000000004 54.3 54.2 54.3 L 65.7 54.3 C 73.6 54.3 80 47.9 80 40 C 80 32.1 73.6 25.7 65.7 25.7 z M 25.8 46.9 L 14.3 46.9 C 10.5 46.9 7.4 43.8 7.4 40 C 7.4 36.2 10.5 33.1 14.3 33.1 L 25.8 33.1 C 28.3 33.1 30.6 34.5 31.8 36.6 L 26.8 36.6 C 24.6 36.6 22.900000000000002 38.4 22.900000000000002 40.5 C 22.900000000000002 42.6 24.700000000000003 44.4 26.8 44.4 L 31.8 44.4 C 30.5 45.9 28 46.9 25.8 46.9 z M 65.7 46.9 L 54.2 46.9 C 52.1 46.9 49.5 45.9 48.2 44.4 L 52.5 44.4 C 54.7 44.4 56.4 42.6 56.4 40.5 C 56.4 38.4 54.6 36.6 52.5 36.6 L 48.2 36.6 C 49.400000000000006 34.5 51.6 33.1 54.2 33.1 L 65.7 33.1 C 69.5 33.1 72.60000000000001 36.2 72.60000000000001 40 C 72.6 43.8 69.5 46.9 65.7 46.9 z" stroke-linecap="round" />
</g>
<g transform="matrix(0.54 0 0 0.54 411.01 176.26)" id="Mz4Xlz0sF-PMhLMhG90DJ"  >
<path style="stroke: none; stroke-width: 1; stroke-dasharray: none; stroke-linecap: butt; stroke-dashoffset: 0; stroke-linejoin: miter; stroke-miterlimit: 4; fill: rgb(0,0,0); fill-rule: nonzero; opacity: 1;" vector-effect="non-scaling-stroke"  transform=" translate(-40, -40)" d="M 65.7 25.7 L 54.2 25.7 C 47.5 25.7 41.900000000000006 30.299999999999997 40.300000000000004 36.5 L 39.6 36.5 C 38 30.3 32.4 25.7 25.700000000000003 25.7 L 14.3 25.7 C 6.4 25.7 0 32.1 0 40 C 0 47.9 6.4 54.3 14.3 54.3 L 25.8 54.3 C 32.2 54.3 37.5 50.099999999999994 39.4 44.4 L 40.6 44.4 C 42.5 50.1 47.800000000000004 54.3 54.2 54.3 L 65.7 54.3 C 73.6 54.3 80 47.9 80 40 C 80 32.1 73.6 25.7 65.7 25.7 z M 25.8 46.9 L 14.3 46.9 C 10.5 46.9 7.4 43.8 7.4 40 C 7.4 36.2 10.5 33.1 14.3 33.1 L 25.8 33.1 C 28.3 33.1 30.6 34.5 31.8 36.6 L 26.8 36.6 C 24.6 36.6 22.900000000000002 38.4 22.900000000000002 40.5 C 22.900000000000002 42.6 24.700000000000003 44.4 26.8 44.4 L 31.8 44.4 C 30.5 45.9 28 46.9 25.8 46.9 z M 65.7 46.9 L 54.2 46.9 C 52.1 46.9 49.5 45.9 48.2 44.4 L 52.5 44.4 C 54.7 44.4 56.4 42.6 56.4 40.5 C 56.4 38.4 54.6 36.6 52.5 36.6 L 48.2 36.6 C 49.400000000000006 34.5 51.6 33.1 54.2 33.1 L 65.7 33.1 C 69.5 33.1 72.60000000000001 36.2 72.60000000000001 40 C 72.6 43.8 69.5 46.9 65.7 46.9 z" stroke-linecap="round" />
</g>
<g transform="matrix(0 -0.43 0.43 0 320 205.03)" id="mzU-XD0eOvOdbIe0SKOAt"  >
<path style="stroke: none; stroke-width: 1; stroke-dasharray: none; stroke-linecap: butt; stroke-dashoffset: 0; stroke-linejoin: miter; stroke-miterlimit: 4; fill: rgb(0,0,0); fill-rule: nonzero; opacity: 1;" vector-effect="non-scaling-stroke"  transform=" translate(-40, -40)" d="M 41.17 72.5 L 80 40 L 41.17 7.5 L 41.17 28.105 L 0 28.105 L 0 51.952 L 41.17 51.952 L 41.17 72.5 z" stroke-linecap="round" />
</g>
<g transform="matrix(0 -0.43 0.43 0 411 205.03)" id="IFNZOoegTBSAAs3bc9qIN"  >
<path style="stroke: none; stroke-width: 1; stroke-dasharray: none; stroke-linecap: butt; stroke-dashoffset: 0; stroke-linejoin: miter; stroke-miterlimit: 4; fill: rgb(0,0,0); fill-rule: nonzero; opacity: 1;" vector-effect="non-scaling-stroke"  transform=" translate(-40, -40)" d="M 41.17 72.5 L 80 40 L 41.17 7.5 L 41.17 28.105 L 0 28.105 L 0 51.952 L 41.17 51.952 L 41.17 72.5 z" stroke-linecap="round" />
</g>
</svg>