<?xml version="1.0" encoding="UTF-8" standalone="no" ?>
<!DOCTYPE svg PUBLIC "-//W3C//DTD SVG 1.1//EN" "http://www.w3.org/Graphics/SVG/1.1/DTD/svg11.dtd">
<svg xmlns="http://www.w3.org/2000/svg" xmlns:xlink="http://www.w3.org/1999/xlink" version="1.1" width="640" height="400" viewBox="0 0 640 400" xml:space="preserve">
<desc>Created with Fabric.js 4.6.0</desc>
<defs>
</defs>
<g transform="matrix(1 0 0 1 320.08 200)" id="ZpvbJas5ZC5AAEzfv7-Zr"  >
<path style="stroke: rgb(0,0,0); stroke-width: 10; stroke-dasharray: none; stroke-linecap: butt; stroke-dashoffset: 0; stroke-linejoin: miter; stroke-miterlimit: 4; fill: none; fill-rule: nonzero; opacity: 1;" vector-effect="non-scaling-stroke"  transform=" translate(0, 0)" d="M -319.61538 0 L 319.61539 0" stroke-linecap="round" />
</g>
<g transform="matrix(1 0 0 1 217.81 195)" id="RtrWzZztWs_hXfWIeFpEg"  >
<path style="stroke: rgb(0,0,0); stroke-width: 1; stroke-dasharray: none; stroke-linecap: butt; stroke-dashoffset: 0; stroke-linejoin: miter; stroke-miterlimit: 4; fill: rgb(255,255,255); fill-opacity: 0; fill-rule: nonzero; opacity: 1;" vector-effect="non-scaling-stroke"  transform=" translate(0, 0)" d="M 0 0" stroke-linecap="round" />
</g>
<g transform="matrix(0.06 0 0 0.06 620.08 20.78)" id="DFUhICkvTdnUwGb_2HX_c"  >
<path style="stroke: none; stroke-width: 1; stroke-dasharray: none; stroke-linecap: butt; stroke-dashoffset: 0; stroke-linejoin: miter; stroke-miterlimit: 4; fill: rgb(0,0,0); fill-rule: nonzero; opacity: 1;" vector-effect="non-scaling-stroke"  transform=" translate(-255.95, -255.95)" d="M 495.9 166.6 C 499.09999999999997 175.29999999999998 496.4 185 489.5 191.2 L 446.2 230.6 C 447.3 238.9 447.9 247.4 447.9 256 C 447.9 264.6 447.29999999999995 273.1 446.2 281.4 L 489.5 320.79999999999995 C 496.4 326.99999999999994 499.1 336.69999999999993 495.9 345.4 C 491.5 357.29999999999995 486.2 368.7 480.09999999999997 379.7 L 475.4 387.8 C 468.79999999999995 398.8 461.4 409.2 453.29999999999995 419 C 447.4 426.2 437.59999999999997 428.6 428.79999999999995 425.8 L 373.09999999999997 408.1 C 359.7 418.40000000000003 344.9 427 329.09999999999997 433.5 L 316.59999999999997 490.6 C 314.59999999999997 499.70000000000005 307.59999999999997 506.90000000000003 298.4 508.40000000000003 C 284.59999999999997 510.70000000000005 270.4 511.90000000000003 255.89999999999998 511.90000000000003 C 241.39999999999998 511.90000000000003 227.2 510.70000000000005 213.39999999999998 508.40000000000003 C 204.2 506.90000000000003 197.2 499.70000000000005 195.2 490.6 L 182.7 433.5 C 166.89999999999998 427 152.1 418.4 138.7 408.1 L 83.1 425.9 C 74.3 428.7 64.5 426.2 58.599999999999994 419.09999999999997 C 50.49999999999999 409.29999999999995 43.099999999999994 398.9 36.49999999999999 387.9 L 31.799999999999994 379.79999999999995 C 25.699999999999996 368.79999999999995 20.39999999999999 357.4 15.999999999999993 345.49999999999994 C 12.799999999999994 336.79999999999995 15.499999999999993 327.09999999999997 22.39999999999999 320.8999999999999 L 65.69999999999999 281.49999999999994 C 64.6 273.1 64 264.6 64 256 C 64 247.39999999999998 64.6 238.9 65.7 230.6 L 22.4 191.2 C 15.499999999999998 185 12.799999999999999 175.29999999999998 15.999999999999998 166.6 C 20.4 154.7 25.699999999999996 143.29999999999998 31.799999999999997 132.3 L 36.5 124.20000000000002 C 43.1 113.20000000000002 50.5 102.80000000000001 58.6 93.00000000000001 C 64.5 85.80000000000001 74.3 83.40000000000002 83.1 86.20000000000002 L 138.8 103.90000000000002 C 152.20000000000002 93.60000000000002 167 85.00000000000003 182.8 78.50000000000003 L 195.3 21.400000000000027 C 197.3 12.300000000000027 204.3 5.100000000000026 213.5 3.6000000000000263 C 227.3 1.2 241.5 0 256 0 C 270.5 0 284.7 1.2 298.5 3.5 C 307.7 5 314.7 12.2 316.7 21.3 L 329.2 78.4 C 345 84.9 359.8 93.5 373.2 103.80000000000001 L 428.9 86.10000000000001 C 437.7 83.30000000000001 447.5 85.80000000000001 453.4 92.9 C 461.5 102.7 468.9 113.10000000000001 475.5 124.10000000000001 L 480.2 132.20000000000002 C 486.3 143.20000000000002 491.59999999999997 154.60000000000002 496 166.5 z M 256 336 C 300.2 336 336 300.2 336 256 C 336 211.8 300.2 176 256 176 C 211.8 176 176 211.8 176 256 C 176 300.2 211.8 336 256 336 z" stroke-linecap="round" />
</g>
<g transform="matrix(1.97 0 0 0.16 482.58 199.55)" id="hjBr-QQeGNQShug7E4dZh"  >
<path style="stroke: rgb(229,60,0); stroke-width: 0; stroke-dasharray: none; stroke-linecap: butt; stroke-dashoffset: 0; stroke-linejoin: miter; stroke-miterlimit: 4; fill: rgb(255,255,255); fill-rule: nonzero; opacity: 1;" vector-effect="non-scaling-stroke"  transform=" translate(0, 0)" d="M -82.5911 -82.5911 L 82.59109 -82.5911 L 82.59109 82.59109 L -82.5911 82.59109 z" stroke-linecap="round" />
</g>
<g transform="matrix(1.21 0 0 1.21 320 200)" id="lb1nlYiaqS9z1_lGoHweM"  >
<path style="stroke: rgb(0,0,0); stroke-width: 10; stroke-dasharray: none; stroke-linecap: butt; stroke-dashoffset: 0; stroke-linejoin: miter; stroke-miterlimit: 4; fill: rgb(255,255,255); fill-rule: nonzero; opacity: 1;" vector-effect="non-scaling-stroke"  transform=" translate(0, 0)" d="M 0 -30.95238 C 17.08571 -30.95238 30.95238 -17.085710000000002 30.95238 0 C 30.95238 17.08571 17.085710000000002 30.95238 0 30.95238 C -17.08571 30.95238 -30.95238 17.085710000000002 -30.95238 0 C -30.95238 -17.08571 -17.085710000000002 -30.95238 0 -30.95238 z" stroke-linecap="round" />
</g>
</svg>